<svg id="visual" viewBox="0 0 1920 1080" width="1920" height="1080" xmlns="http://www.w3.org/2000/svg" xmlns:xlink="http://www.w3.org/1999/xlink" version="1.1"><rect x="0" y="0" width="1920" height="1080" fill="#0c1c30"></rect><path d="M0 196L83 196L83 181L167 181L167 184L250 184L250 177L334 177L334 180L417 180L417 196L501 196L501 200L584 200L584 181L668 181L668 186L751 186L751 202L835 202L835 182L918 182L918 198L1002 198L1002 205L1085 205L1085 184L1169 184L1169 180L1252 180L1252 197L1336 197L1336 178L1419 178L1419 202L1503 202L1503 182L1586 182L1586 196L1670 196L1670 185L1753 185L1753 182L1837 182L1837 196L1920 196L1920 202L1920 0L1920 0L1837 0L1837 0L1753 0L1753 0L1670 0L1670 0L1586 0L1586 0L1503 0L1503 0L1419 0L1419 0L1336 0L1336 0L1252 0L1252 0L1169 0L1169 0L1085 0L1085 0L1002 0L1002 0L918 0L918 0L835 0L835 0L751 0L751 0L668 0L668 0L584 0L584 0L501 0L501 0L417 0L417 0L334 0L334 0L250 0L250 0L167 0L167 0L83 0L83 0L0 0Z" fill="#0c1c30"></path><path d="M0 170L83 170L83 173L167 173L167 179L250 179L250 154L334 154L334 179L417 179L417 159L501 159L501 175L584 175L584 157L668 157L668 160L751 160L751 173L835 173L835 176L918 176L918 175L1002 175L1002 171L1085 171L1085 179L1169 179L1169 170L1252 170L1252 159L1336 159L1336 181L1419 181L1419 174L1503 174L1503 173L1586 173L1586 164L1670 164L1670 169L1753 169L1753 161L1837 161L1837 153L1920 153L1920 170L1920 0L1920 0L1837 0L1837 0L1753 0L1753 0L1670 0L1670 0L1586 0L1586 0L1503 0L1503 0L1419 0L1419 0L1336 0L1336 0L1252 0L1252 0L1169 0L1169 0L1085 0L1085 0L1002 0L1002 0L918 0L918 0L835 0L835 0L751 0L751 0L668 0L668 0L584 0L584 0L501 0L501 0L417 0L417 0L334 0L334 0L250 0L250 0L167 0L167 0L83 0L83 0L0 0Z" fill="#2d2b4d"></path><path d="M0 141L83 141L83 146L167 146L167 139L250 139L250 148L334 148L334 153L417 153L417 138L501 138L501 146L584 146L584 154L668 154L668 133L751 133L751 129L835 129L835 151L918 151L918 141L1002 141L1002 135L1085 135L1085 132L1169 132L1169 147L1252 147L1252 145L1336 145L1336 149L1419 149L1419 139L1503 139L1503 135L1586 135L1586 133L1670 133L1670 134L1753 134L1753 131L1837 131L1837 154L1920 154L1920 134L1920 0L1920 0L1837 0L1837 0L1753 0L1753 0L1670 0L1670 0L1586 0L1586 0L1503 0L1503 0L1419 0L1419 0L1336 0L1336 0L1252 0L1252 0L1169 0L1169 0L1085 0L1085 0L1002 0L1002 0L918 0L918 0L835 0L835 0L751 0L751 0L668 0L668 0L584 0L584 0L501 0L501 0L417 0L417 0L334 0L334 0L250 0L250 0L167 0L167 0L83 0L83 0L0 0Z" fill="#593863"></path><path d="M0 107L83 107L83 108L167 108L167 108L250 108L250 110L334 110L334 128L417 128L417 120L501 120L501 126L584 126L584 115L668 115L668 108L751 108L751 117L835 117L835 124L918 124L918 114L1002 114L1002 120L1085 120L1085 110L1169 110L1169 105L1252 105L1252 107L1336 107L1336 123L1419 123L1419 129L1503 129L1503 131L1586 131L1586 121L1670 121L1670 108L1753 108L1753 112L1837 112L1837 129L1920 129L1920 111L1920 0L1920 0L1837 0L1837 0L1753 0L1753 0L1670 0L1670 0L1586 0L1586 0L1503 0L1503 0L1419 0L1419 0L1336 0L1336 0L1252 0L1252 0L1169 0L1169 0L1085 0L1085 0L1002 0L1002 0L918 0L918 0L835 0L835 0L751 0L751 0L668 0L668 0L584 0L584 0L501 0L501 0L417 0L417 0L334 0L334 0L250 0L250 0L167 0L167 0L83 0L83 0L0 0Z" fill="#8a416e"></path><path d="M0 108L83 108L83 104L167 104L167 90L250 90L250 106L334 106L334 83L417 83L417 108L501 108L501 107L584 107L584 95L668 95L668 106L751 106L751 98L835 98L835 81L918 81L918 88L1002 88L1002 83L1085 83L1085 106L1169 106L1169 91L1252 91L1252 94L1336 94L1336 82L1419 82L1419 98L1503 98L1503 88L1586 88L1586 106L1670 106L1670 103L1753 103L1753 81L1837 81L1837 91L1920 91L1920 88L1920 0L1920 0L1837 0L1837 0L1753 0L1753 0L1670 0L1670 0L1586 0L1586 0L1503 0L1503 0L1419 0L1419 0L1336 0L1336 0L1252 0L1252 0L1169 0L1169 0L1085 0L1085 0L1002 0L1002 0L918 0L918 0L835 0L835 0L751 0L751 0L668 0L668 0L584 0L584 0L501 0L501 0L417 0L417 0L334 0L334 0L250 0L250 0L167 0L167 0L83 0L83 0L0 0Z" fill="#b94e6d"></path><path d="M0 68L83 68L83 77L167 77L167 65L250 65L250 58L334 58L334 62L417 62L417 82L501 82L501 57L584 57L584 79L668 79L668 59L751 59L751 69L835 69L835 74L918 74L918 58L1002 58L1002 72L1085 72L1085 69L1169 69L1169 61L1252 61L1252 62L1336 62L1336 65L1419 65L1419 75L1503 75L1503 58L1586 58L1586 82L1670 82L1670 84L1753 84L1753 70L1837 70L1837 67L1920 67L1920 67L1920 0L1920 0L1837 0L1837 0L1753 0L1753 0L1670 0L1670 0L1586 0L1586 0L1503 0L1503 0L1419 0L1419 0L1336 0L1336 0L1252 0L1252 0L1169 0L1169 0L1085 0L1085 0L1002 0L1002 0L918 0L918 0L835 0L835 0L751 0L751 0L668 0L668 0L584 0L584 0L501 0L501 0L417 0L417 0L334 0L334 0L250 0L250 0L167 0L167 0L83 0L83 0L0 0Z" fill="#de6461"></path><path d="M0 52L83 52L83 38L167 38L167 54L250 54L250 39L334 39L334 46L417 46L417 37L501 37L501 34L584 34L584 49L668 49L668 38L751 38L751 61L835 61L835 57L918 57L918 35L1002 35L1002 37L1085 37L1085 45L1169 45L1169 60L1252 60L1252 39L1336 39L1336 47L1419 47L1419 50L1503 50L1503 45L1586 45L1586 53L1670 53L1670 51L1753 51L1753 49L1837 49L1837 60L1920 60L1920 50L1920 0L1920 0L1837 0L1837 0L1753 0L1753 0L1670 0L1670 0L1586 0L1586 0L1503 0L1503 0L1419 0L1419 0L1336 0L1336 0L1252 0L1252 0L1169 0L1169 0L1085 0L1085 0L1002 0L1002 0L918 0L918 0L835 0L835 0L751 0L751 0L668 0L668 0L584 0L584 0L501 0L501 0L417 0L417 0L334 0L334 0L250 0L250 0L167 0L167 0L83 0L83 0L0 0Z" fill="#f5854f"></path><path d="M0 21L83 21L83 28L167 28L167 31L250 31L250 16L334 16L334 34L417 34L417 18L501 18L501 19L584 19L584 37L668 37L668 11L751 11L751 24L835 24L835 10L918 10L918 27L1002 27L1002 18L1085 18L1085 37L1169 37L1169 26L1252 26L1252 9L1336 9L1336 22L1419 22L1419 21L1503 21L1503 35L1586 35L1586 22L1670 22L1670 22L1753 22L1753 16L1837 16L1837 19L1920 19L1920 18L1920 0L1920 0L1837 0L1837 0L1753 0L1753 0L1670 0L1670 0L1586 0L1586 0L1503 0L1503 0L1419 0L1419 0L1336 0L1336 0L1252 0L1252 0L1169 0L1169 0L1085 0L1085 0L1002 0L1002 0L918 0L918 0L835 0L835 0L751 0L751 0L668 0L668 0L584 0L584 0L501 0L501 0L417 0L417 0L334 0L334 0L250 0L250 0L167 0L167 0L83 0L83 0L0 0Z" fill="#fbae3c"></path></svg>