<svg id="visual" viewBox="0 0 900 450" width="900" height="450" xmlns="http://www.w3.org/2000/svg" xmlns:xlink="http://www.w3.org/1999/xlink" version="1.1"><rect x="0" y="0" width="900" height="450" fill="#08121f"></rect><path d="M0 112L39 112L39 125L78 125L78 128L117 128L117 125L157 125L157 124L196 124L196 120L235 120L235 113L274 113L274 119L313 119L313 123L352 123L352 133L391 133L391 132L430 132L430 119L470 119L470 117L509 117L509 130L548 130L548 124L587 124L587 115L626 115L626 114L665 114L665 132L704 132L704 108L743 108L743 128L783 128L783 125L822 125L822 113L861 113L861 115L900 115L900 110L900 0L900 0L861 0L861 0L822 0L822 0L783 0L783 0L743 0L743 0L704 0L704 0L665 0L665 0L626 0L626 0L587 0L587 0L548 0L548 0L509 0L509 0L470 0L470 0L430 0L430 0L391 0L391 0L352 0L352 0L313 0L313 0L274 0L274 0L235 0L235 0L196 0L196 0L157 0L157 0L117 0L117 0L78 0L78 0L39 0L39 0L0 0Z" fill="#08121f"></path><path d="M0 111L39 111L39 105L78 105L78 98L117 98L117 111L157 111L157 95L196 95L196 104L235 104L235 101L274 101L274 100L313 100L313 102L352 102L352 113L391 113L391 100L430 100L430 116L470 116L470 99L509 99L509 114L548 114L548 119L587 119L587 105L626 105L626 110L665 110L665 110L704 110L704 97L743 97L743 109L783 109L783 94L822 94L822 94L861 94L861 101L900 101L900 103L900 0L900 0L861 0L861 0L822 0L822 0L783 0L783 0L743 0L743 0L704 0L704 0L665 0L665 0L626 0L626 0L587 0L587 0L548 0L548 0L509 0L509 0L470 0L470 0L430 0L430 0L391 0L391 0L352 0L352 0L313 0L313 0L274 0L274 0L235 0L235 0L196 0L196 0L157 0L157 0L117 0L117 0L78 0L78 0L39 0L39 0L0 0Z" fill="#091321"></path><path d="M0 99L39 99L39 89L78 89L78 81L117 81L117 106L157 106L157 80L196 80L196 97L235 97L235 99L274 99L274 103L313 103L313 92L352 92L352 106L391 106L391 90L430 90L430 88L470 88L470 103L509 103L509 105L548 105L548 94L587 94L587 103L626 103L626 100L665 100L665 100L704 100L704 89L743 89L743 90L783 90L783 102L822 102L822 94L861 94L861 85L900 85L900 90L900 0L900 0L861 0L861 0L822 0L822 0L783 0L783 0L743 0L743 0L704 0L704 0L665 0L665 0L626 0L626 0L587 0L587 0L548 0L548 0L509 0L509 0L470 0L470 0L430 0L430 0L391 0L391 0L352 0L352 0L313 0L313 0L274 0L274 0L235 0L235 0L196 0L196 0L157 0L157 0L117 0L117 0L78 0L78 0L39 0L39 0L0 0Z" fill="#0a1523"></path><path d="M0 72L39 72L39 75L78 75L78 87L117 87L117 71L157 71L157 75L196 75L196 74L235 74L235 76L274 76L274 79L313 79L313 75L352 75L352 71L391 71L391 88L430 88L430 93L470 93L470 83L509 83L509 79L548 79L548 85L587 85L587 92L626 92L626 89L665 89L665 92L704 92L704 71L743 71L743 92L783 92L783 89L822 89L822 83L861 83L861 84L900 84L900 68L900 0L900 0L861 0L861 0L822 0L822 0L783 0L783 0L743 0L743 0L704 0L704 0L665 0L665 0L626 0L626 0L587 0L587 0L548 0L548 0L509 0L509 0L470 0L470 0L430 0L430 0L391 0L391 0L352 0L352 0L313 0L313 0L274 0L274 0L235 0L235 0L196 0L196 0L157 0L157 0L117 0L117 0L78 0L78 0L39 0L39 0L0 0Z" fill="#0a1625"></path><path d="M0 73L39 73L39 58L78 58L78 74L117 74L117 70L157 70L157 69L196 69L196 77L235 77L235 64L274 64L274 56L313 56L313 74L352 74L352 69L391 69L391 78L430 78L430 66L470 66L470 55L509 55L509 75L548 75L548 62L587 62L587 69L626 69L626 61L665 61L665 77L704 77L704 60L743 60L743 57L783 57L783 68L822 68L822 68L861 68L861 76L900 76L900 54L900 0L900 0L861 0L861 0L822 0L822 0L783 0L783 0L743 0L743 0L704 0L704 0L665 0L665 0L626 0L626 0L587 0L587 0L548 0L548 0L509 0L509 0L470 0L470 0L430 0L430 0L391 0L391 0L352 0L352 0L313 0L313 0L274 0L274 0L235 0L235 0L196 0L196 0L157 0L157 0L117 0L117 0L78 0L78 0L39 0L39 0L0 0Z" fill="#0b1727"></path><path d="M0 62L39 62L39 43L78 43L78 59L117 59L117 40L157 40L157 57L196 57L196 40L235 40L235 42L274 42L274 51L313 51L313 41L352 41L352 43L391 43L391 41L430 41L430 40L470 40L470 51L509 51L509 45L548 45L548 57L587 57L587 58L626 58L626 46L665 46L665 63L704 63L704 62L743 62L743 47L783 47L783 56L822 56L822 49L861 49L861 52L900 52L900 51L900 0L900 0L861 0L861 0L822 0L822 0L783 0L783 0L743 0L743 0L704 0L704 0L665 0L665 0L626 0L626 0L587 0L587 0L548 0L548 0L509 0L509 0L470 0L470 0L430 0L430 0L391 0L391 0L352 0L352 0L313 0L313 0L274 0L274 0L235 0L235 0L196 0L196 0L157 0L157 0L117 0L117 0L78 0L78 0L39 0L39 0L0 0Z" fill="#0b1829"></path><path d="M0 46L39 46L39 37L78 37L78 28L117 28L117 45L157 45L157 45L196 45L196 31L235 31L235 53L274 53L274 42L313 42L313 42L352 42L352 53L391 53L391 29L430 29L430 52L470 52L470 40L509 40L509 42L548 42L548 40L587 40L587 33L626 33L626 50L665 50L665 35L704 35L704 35L743 35L743 34L783 34L783 48L822 48L822 44L861 44L861 45L900 45L900 50L900 0L900 0L861 0L861 0L822 0L822 0L783 0L783 0L743 0L743 0L704 0L704 0L665 0L665 0L626 0L626 0L587 0L587 0L548 0L548 0L509 0L509 0L470 0L470 0L430 0L430 0L391 0L391 0L352 0L352 0L313 0L313 0L274 0L274 0L235 0L235 0L196 0L196 0L157 0L157 0L117 0L117 0L78 0L78 0L39 0L39 0L0 0Z" fill="#0c1a2b"></path><path d="M0 13L39 13L39 33L78 33L78 37L117 37L117 33L157 33L157 16L196 16L196 19L235 19L235 36L274 36L274 15L313 15L313 20L352 20L352 26L391 26L391 35L430 35L430 28L470 28L470 32L509 32L509 19L548 19L548 34L587 34L587 18L626 18L626 30L665 30L665 13L704 13L704 18L743 18L743 29L783 29L783 26L822 26L822 30L861 30L861 23L900 23L900 35L900 0L900 0L861 0L861 0L822 0L822 0L783 0L783 0L743 0L743 0L704 0L704 0L665 0L665 0L626 0L626 0L587 0L587 0L548 0L548 0L509 0L509 0L470 0L470 0L430 0L430 0L391 0L391 0L352 0L352 0L313 0L313 0L274 0L274 0L235 0L235 0L196 0L196 0L157 0L157 0L117 0L117 0L78 0L78 0L39 0L39 0L0 0Z" fill="#0c1b2e"></path><path d="M0 21L39 21L39 10L78 10L78 24L117 24L117 3L157 3L157 4L196 4L196 22L235 22L235 6L274 6L274 23L313 23L313 5L352 5L352 3L391 3L391 12L430 12L430 2L470 2L470 21L509 21L509 22L548 22L548 6L587 6L587 20L626 20L626 11L665 11L665 13L704 13L704 15L743 15L743 12L783 12L783 12L822 12L822 1L861 1L861 25L900 25L900 19L900 0L900 0L861 0L861 0L822 0L822 0L783 0L783 0L743 0L743 0L704 0L704 0L665 0L665 0L626 0L626 0L587 0L587 0L548 0L548 0L509 0L509 0L470 0L470 0L430 0L430 0L391 0L391 0L352 0L352 0L313 0L313 0L274 0L274 0L235 0L235 0L196 0L196 0L157 0L157 0L117 0L117 0L78 0L78 0L39 0L39 0L0 0Z" fill="#0c1c30"></path></svg>