<svg id="visual" viewBox="0 0 900 450" width="900" height="450" xmlns="http://www.w3.org/2000/svg" xmlns:xlink="http://www.w3.org/1999/xlink" version="1.1"><rect x="0" y="0" width="900" height="450" fill="#000000"></rect><path d="M0 427L39 427L39 417L78 417L78 433L117 433L117 387L157 387L157 433L196 433L196 437L235 437L235 406L274 406L274 404L313 404L313 403L352 403L352 381L391 381L391 429L430 429L430 441L470 441L470 418L509 418L509 442L548 442L548 431L587 431L587 423L626 423L626 416L665 416L665 439L704 439L704 406L743 406L743 394L783 394L783 433L822 433L822 397L861 397L861 444L900 444L900 420L900 0L900 0L861 0L861 0L822 0L822 0L783 0L783 0L743 0L743 0L704 0L704 0L665 0L665 0L626 0L626 0L587 0L587 0L548 0L548 0L509 0L509 0L470 0L470 0L430 0L430 0L391 0L391 0L352 0L352 0L313 0L313 0L274 0L274 0L235 0L235 0L196 0L196 0L157 0L157 0L117 0L117 0L78 0L78 0L39 0L39 0L0 0Z" fill="#000000"></path><path d="M0 356L39 356L39 395L78 395L78 385L117 385L117 387L157 387L157 399L196 399L196 368L235 368L235 408L274 408L274 356L313 356L313 396L352 396L352 349L391 349L391 347L430 347L430 361L470 361L470 396L509 396L509 367L548 367L548 359L587 359L587 380L626 380L626 408L665 408L665 368L704 368L704 369L743 369L743 409L783 409L783 373L822 373L822 381L861 381L861 373L900 373L900 383L900 0L900 0L861 0L861 0L822 0L822 0L783 0L783 0L743 0L743 0L704 0L704 0L665 0L665 0L626 0L626 0L587 0L587 0L548 0L548 0L509 0L509 0L470 0L470 0L430 0L430 0L391 0L391 0L352 0L352 0L313 0L313 0L274 0L274 0L235 0L235 0L196 0L196 0L157 0L157 0L117 0L117 0L78 0L78 0L39 0L39 0L0 0Z" fill="#252525"></path><path d="M0 364L39 364L39 362L78 362L78 355L117 355L117 325L157 325L157 336L196 336L196 335L235 335L235 355L274 355L274 361L313 361L313 352L352 352L352 365L391 365L391 358L430 358L430 341L470 341L470 348L509 348L509 337L548 337L548 380L587 380L587 338L626 338L626 321L665 321L665 344L704 344L704 312L743 312L743 379L783 379L783 342L822 342L822 363L861 363L861 334L900 334L900 332L900 0L900 0L861 0L861 0L822 0L822 0L783 0L783 0L743 0L743 0L704 0L704 0L665 0L665 0L626 0L626 0L587 0L587 0L548 0L548 0L509 0L509 0L470 0L470 0L430 0L430 0L391 0L391 0L352 0L352 0L313 0L313 0L274 0L274 0L235 0L235 0L196 0L196 0L157 0L157 0L117 0L117 0L78 0L78 0L39 0L39 0L0 0Z" fill="#464646"></path><path d="M0 296L39 296L39 319L78 319L78 296L117 296L117 302L157 302L157 282L196 282L196 318L235 318L235 335L274 335L274 316L313 316L313 342L352 342L352 288L391 288L391 317L430 317L430 332L470 332L470 299L509 299L509 319L548 319L548 292L587 292L587 323L626 323L626 324L665 324L665 326L704 326L704 277L743 277L743 293L783 293L783 281L822 281L822 311L861 311L861 284L900 284L900 329L900 0L900 0L861 0L861 0L822 0L822 0L783 0L783 0L743 0L743 0L704 0L704 0L665 0L665 0L626 0L626 0L587 0L587 0L548 0L548 0L509 0L509 0L470 0L470 0L430 0L430 0L391 0L391 0L352 0L352 0L313 0L313 0L274 0L274 0L235 0L235 0L196 0L196 0L157 0L157 0L117 0L117 0L78 0L78 0L39 0L39 0L0 0Z" fill="#6a6a6a"></path><path d="M0 280L39 280L39 269L78 269L78 296L117 296L117 256L157 256L157 272L196 272L196 308L235 308L235 291L274 291L274 244L313 244L313 245L352 245L352 268L391 268L391 284L430 284L430 289L470 289L470 246L509 246L509 261L548 261L548 247L587 247L587 281L626 281L626 249L665 249L665 284L704 284L704 255L743 255L743 249L783 249L783 249L822 249L822 291L861 291L861 307L900 307L900 280L900 0L900 0L861 0L861 0L822 0L822 0L783 0L783 0L743 0L743 0L704 0L704 0L665 0L665 0L626 0L626 0L587 0L587 0L548 0L548 0L509 0L509 0L470 0L470 0L430 0L430 0L391 0L391 0L352 0L352 0L313 0L313 0L274 0L274 0L235 0L235 0L196 0L196 0L157 0L157 0L117 0L117 0L78 0L78 0L39 0L39 0L0 0Z" fill="#909090"></path><path d="M0 233L39 233L39 259L78 259L78 232L117 232L117 224L157 224L157 230L196 230L196 218L235 218L235 222L274 222L274 268L313 268L313 231L352 231L352 220L391 220L391 226L430 226L430 245L470 245L470 219L509 219L509 270L548 270L548 263L587 263L587 207L626 207L626 236L665 236L665 233L704 233L704 251L743 251L743 227L783 227L783 268L822 268L822 247L861 247L861 275L900 275L900 256L900 0L900 0L861 0L861 0L822 0L822 0L783 0L783 0L743 0L743 0L704 0L704 0L665 0L665 0L626 0L626 0L587 0L587 0L548 0L548 0L509 0L509 0L470 0L470 0L430 0L430 0L391 0L391 0L352 0L352 0L313 0L313 0L274 0L274 0L235 0L235 0L196 0L196 0L157 0L157 0L117 0L117 0L78 0L78 0L39 0L39 0L0 0Z" fill="#a0a0a0"></path><path d="M0 230L39 230L39 187L78 187L78 207L117 207L117 183L157 183L157 230L196 230L196 216L235 216L235 207L274 207L274 228L313 228L313 199L352 199L352 202L391 202L391 240L430 240L430 223L470 223L470 197L509 197L509 233L548 233L548 183L587 183L587 196L626 196L626 196L665 196L665 188L704 188L704 183L743 183L743 235L783 235L783 232L822 232L822 215L861 215L861 190L900 190L900 222L900 0L900 0L861 0L861 0L822 0L822 0L783 0L783 0L743 0L743 0L704 0L704 0L665 0L665 0L626 0L626 0L587 0L587 0L548 0L548 0L509 0L509 0L470 0L470 0L430 0L430 0L391 0L391 0L352 0L352 0L313 0L313 0L274 0L274 0L235 0L235 0L196 0L196 0L157 0L157 0L117 0L117 0L78 0L78 0L39 0L39 0L0 0Z" fill="#a0a0a0"></path><path d="M0 174L39 174L39 192L78 192L78 145L117 145L117 198L157 198L157 150L196 150L196 154L235 154L235 183L274 183L274 189L313 189L313 143L352 143L352 193L391 193L391 148L430 148L430 192L470 192L470 168L509 168L509 175L548 175L548 171L587 171L587 165L626 165L626 171L665 171L665 142L704 142L704 190L743 190L743 180L783 180L783 198L822 198L822 179L861 179L861 174L900 174L900 186L900 0L900 0L861 0L861 0L822 0L822 0L783 0L783 0L743 0L743 0L704 0L704 0L665 0L665 0L626 0L626 0L587 0L587 0L548 0L548 0L509 0L509 0L470 0L470 0L430 0L430 0L391 0L391 0L352 0L352 0L313 0L313 0L274 0L274 0L235 0L235 0L196 0L196 0L157 0L157 0L117 0L117 0L78 0L78 0L39 0L39 0L0 0Z" fill="#909090"></path><path d="M0 105L39 105L39 164L78 164L78 157L117 157L117 168L157 168L157 133L196 133L196 125L235 125L235 118L274 118L274 117L313 117L313 149L352 149L352 157L391 157L391 145L430 145L430 133L470 133L470 151L509 151L509 150L548 150L548 112L587 112L587 161L626 161L626 107L665 107L665 118L704 118L704 123L743 123L743 104L783 104L783 131L822 131L822 139L861 139L861 135L900 135L900 116L900 0L900 0L861 0L861 0L822 0L822 0L783 0L783 0L743 0L743 0L704 0L704 0L665 0L665 0L626 0L626 0L587 0L587 0L548 0L548 0L509 0L509 0L470 0L470 0L430 0L430 0L391 0L391 0L352 0L352 0L313 0L313 0L274 0L274 0L235 0L235 0L196 0L196 0L157 0L157 0L117 0L117 0L78 0L78 0L39 0L39 0L0 0Z" fill="#6a6a6a"></path><path d="M0 103L39 103L39 93L78 93L78 122L117 122L117 105L157 105L157 96L196 96L196 83L235 83L235 131L274 131L274 113L313 113L313 125L352 125L352 118L391 118L391 122L430 122L430 135L470 135L470 81L509 81L509 92L548 92L548 121L587 121L587 106L626 106L626 102L665 102L665 79L704 79L704 112L743 112L743 126L783 126L783 133L822 133L822 122L861 122L861 127L900 127L900 103L900 0L900 0L861 0L861 0L822 0L822 0L783 0L783 0L743 0L743 0L704 0L704 0L665 0L665 0L626 0L626 0L587 0L587 0L548 0L548 0L509 0L509 0L470 0L470 0L430 0L430 0L391 0L391 0L352 0L352 0L313 0L313 0L274 0L274 0L235 0L235 0L196 0L196 0L157 0L157 0L117 0L117 0L78 0L78 0L39 0L39 0L0 0Z" fill="#464646"></path><path d="M0 54L39 54L39 47L78 47L78 98L117 98L117 96L157 96L157 36L196 36L196 72L235 72L235 60L274 60L274 81L313 81L313 73L352 73L352 42L391 42L391 44L430 44L430 93L470 93L470 39L509 39L509 36L548 36L548 36L587 36L587 99L626 99L626 62L665 62L665 84L704 84L704 46L743 46L743 90L783 90L783 97L822 97L822 50L861 50L861 43L900 43L900 86L900 0L900 0L861 0L861 0L822 0L822 0L783 0L783 0L743 0L743 0L704 0L704 0L665 0L665 0L626 0L626 0L587 0L587 0L548 0L548 0L509 0L509 0L470 0L470 0L430 0L430 0L391 0L391 0L352 0L352 0L313 0L313 0L274 0L274 0L235 0L235 0L196 0L196 0L157 0L157 0L117 0L117 0L78 0L78 0L39 0L39 0L0 0Z" fill="#252525"></path><path d="M0 7L39 7L39 26L78 26L78 30L117 30L117 60L157 60L157 22L196 22L196 25L235 25L235 55L274 55L274 66L313 66L313 25L352 25L352 20L391 20L391 10L430 10L430 55L470 55L470 30L509 30L509 5L548 5L548 46L587 46L587 52L626 52L626 24L665 24L665 32L704 32L704 50L743 50L743 7L783 7L783 34L822 34L822 10L861 10L861 31L900 31L900 39L900 0L900 0L861 0L861 0L822 0L822 0L783 0L783 0L743 0L743 0L704 0L704 0L665 0L665 0L626 0L626 0L587 0L587 0L548 0L548 0L509 0L509 0L470 0L470 0L430 0L430 0L391 0L391 0L352 0L352 0L313 0L313 0L274 0L274 0L235 0L235 0L196 0L196 0L157 0L157 0L117 0L117 0L78 0L78 0L39 0L39 0L0 0Z" fill="#000000"></path></svg>